PathFileType	4	(X/Y/Z) flx_2kg_2.trc																										
DataRate	CameraRate	NumFrames	NumMarkers	Units	OrigDataRate	OrigDataStartFrame	OrigNumFrames																					
100	100	49	9	mm	100	514	821																					
Frame#	Time	gu			centelbow			EpL			centpxt8			centijc7			ij			ts			aa			ai		
		X1	Y1	Z1	X2	Y2	Z2	X3	Y3	Z3	X4	Y4	Z4	X5	Y5	Z5	X6	Y6	Z6	X7	Y7	Z7	X8	Y8	Z8	X9	Y9	Z9  
513	5.13	-89.003	67.691	112.456	118.754	145.213	221.137	104.258	173.95	219.276	-46.816	-153.158	-8.669	-46.816	31.938	-8.669	0	0	0	-156.582	-5.308	50.82	-117.929	81.371	123.053	-129.259	-78.757	132.944
514	5.14	-88.463	66.658	113.644	120.588	139.095	223.349	106.644	168.121	221.765	-46.816	-153.158	-8.669	-46.816	31.938	-8.669	0	0	0	-156.664	-4.83	50.648	-117.66	81.183	123.485	-129.361	-78.99	132.137
515	5.15	-87.519	65.761	114.571	122.805	133.104	225.082	109.404	162.4	223.811	-46.816	-153.158	-8.669	-46.816	31.938	-8.669	0	0	0	-156.592	-4.392	50.647	-117.129	80.872	124.115	-129.357	-79.328	131.446
516	5.16	-86.624	65.66	114.863	124.894	128.299	225.86	111.982	157.825	224.919	-46.816	-153.158	-8.669	-46.816	31.938	-8.669	0	0	0	-156.602	-3.999	50.697	-116.569	80.483	124.758	-129.543	-79.71	130.83
517	5.17	-86.101	66.205	114.616	126.459	124.547	225.966	113.984	154.269	225.351	-46.816	-153.158	-8.669	-46.816	31.938	-8.669	0	0	0	-156.763	-3.618	50.484	-116.145	80.1	125.092	-129.97	-80.062	130.007
518	5.18	-85.933	66.679	114.418	127.491	120.815	226.238	115.443	150.717	225.938	-46.816	-153.158	-8.669	-46.816	31.938	-8.669	0	0	0	-156.961	-3.396	50.156	-115.864	79.58	125.328	-130.509	-80.539	129.117
519	5.19	-85.664	66.565	114.851	128.467	116.253	227.383	116.878	146.338	227.388	-46.816	-153.158	-8.669	-46.816	31.938	-8.669	0	0	0	-157.031	-3.42	50.163	-115.601	78.817	125.962	-130.961	-81.26	128.566
520	5.2	-84.936	66.092	115.848	129.754	111.078	229.288	118.654	141.346	229.599	-46.816	-153.158	-8.669	-46.816	31.938	-8.669	0	0	0	-156.891	-3.454	50.483	-115.22	78.033	126.957	-131.121	-82.007	128.271
521	5.21	-84.023	65.889	116.739	131.115	106.203	231.083	120.5	136.639	231.702	-46.816	-153.158	-8.669	-46.816	31.938	-8.669	0	0	0	-156.632	-3.191	50.65	-114.707	77.531	127.794	-130.968	-82.478	127.726
522	5.22	-83.342	66.118	117.036	132.214	101.969	232.079	122.061	132.555	232.998	-46.816	-153.158	-8.669	-46.816	31.938	-8.669	0	0	0	-156.334	-2.486	50.313	-114.086	77.477	128.068	-130.585	-82.501	126.604
523	5.23	-82.803	66.42	116.941	133.145	97.917	232.52	123.454	128.643	233.722	-46.816	-153.158	-8.669	-46.816	31.938	-8.669	0	0	0	-155.911	-1.388	49.547	-113.306	77.866	127.831	-129.995	-82.075	125.07
524	5.24	-82.146	66.541	116.971	134.065	93.575	233.186	124.859	124.438	234.65	-46.816	-153.158	-8.669	-46.816	31.938	-8.669	0	0	0	-155.396	-0.323	48.892	-112.463	78.289	127.643	-129.416	-81.601	123.755
525	5.25	-81.507	66.366	117.434	134.756	88.662	234.555	126.072	119.664	236.268	-46.816	-153.158	-8.669	-46.816	31.938	-8.669	0	0	0	-155.146	0.156	48.885	-111.917	78.145	128.092	-129.321	-81.668	123.205
526	5.26	-81.052	65.752	118.268	135.083	83.125	236.456	126.95	114.262	238.407	-46.816	-153.158	-8.669	-46.816	31.938	-8.669	0	0	0	-155.412	0.065	49.401	-111.889	77.391	129.096	-129.862	-82.326	123.188
527	5.27	-80.48	64.932	119.083	135.462	77.619	238.215	127.862	108.876	240.384	-46.816	-153.158	-8.669	-46.816	31.938	-8.669	0	0	0	-155.927	0.03	49.801	-112.087	76.614	130.036	-130.558	-82.997	122.935
528	5.28	-79.555	64.594	119.484	136.224	73.208	239.274	129.093	104.561	241.633	-46.816	-153.158	-8.669	-46.816	31.938	-8.669	0	0	0	-156.158	0.595	49.678	-111.966	76.359	130.497	-130.77	-83.144	121.989
529	5.29	-78.578	65.065	119.497	137.047	70.111	239.767	130.329	101.542	242.293	-46.816	-153.158	-8.669	-46.816	31.938	-8.669	0	0	0	-155.788	1.678	49.164	-111.212	76.558	130.593	-130.29	-82.823	120.543
530	5.3	-77.815	65.742	119.601	137.547	67.213	240.436	131.251	98.719	243.114	-46.816	-153.158	-8.669	-46.816	31.938	-8.669	0	0	0	-155.014	2.605	48.68	-110.027	76.547	130.739	-129.547	-82.675	119.138
531	5.31	-77.092	65.574	120.378	137.757	62.968	242.105	131.949	94.555	244.932	-46.816	-153.158	-8.669	-46.816	31.938	-8.669	0	0	0	-154.371	2.921	48.5	-108.987	75.892	131.206	-129.217	-83.127	118.132
532	5.32	-76.327	64.187	121.833	137.728	56.909	244.763	132.475	88.577	247.763	-46.816	-153.158	-8.669	-46.816	31.938	-8.669	0	0	0	-154.089	3.027	48.465	-108.402	75.058	131.826	-129.431	-83.739	117.381
533	5.33	-75.765	62.475	123.14	137.393	50.383	247.244	132.692	82.115	250.465	-46.816	-153.158	-8.669	-46.816	31.938	-8.669	0	0	0	-153.996	3.504	48.227	-108.143	74.678	132.23	-129.829	-83.907	116.498
534	5.34	-75.595	61.561	123.642	136.777	45.09	248.587	132.535	76.857	252.092	-46.816	-153.158	-8.669	-46.816	31.938	-8.669	0	0	0	-153.984	4.265	47.773	-108.064	74.625	132.423	-130.273	-83.757	115.416
535	5.35	-75.808	61.418	123.64	135.92	41.157	249.119	132.031	72.932	252.953	-46.816	-153.158	-8.669	-46.816	31.938	-8.669	0	0	0	-154.024	4.889	47.36	-108.053	74.374	132.703	-130.799	-83.778	114.325
536	5.36	-76.105	61.354	123.637	135.028	37.635	249.512	131.43	69.398	253.699	-46.816	-153.158	-8.669	-46.816	31.938	-8.669	0	0	0	-153.917	5.255	47.04	-107.862	73.759	133.127	-131.214	-84.122	113.237
537	5.37	-75.989	61.092	123.708	134.478	33.895	249.994	131.165	65.64	254.544	-46.816	-153.158	-8.669	-46.816	31.938	-8.669	0	0	0	-153.517	5.551	46.729	-107.371	73.022	133.579	-131.337	-84.558	112.106
538	5.38	-75.41	60.674	124.021	134.154	29.669	250.93	131.158	61.389	255.856	-46.816	-153.158	-8.669	-46.816	31.938	-8.669	0	0	0	-153.05	5.968	46.482	-106.872	72.439	134.084	-131.393	-84.838	111.065
539	5.39	-74.773	60.196	124.849	133.58	24.983	252.651	130.943	56.672	257.965	-46.816	-153.158	-8.669	-46.816	31.938	-8.669	0	0	0	-152.878	6.559	46.304	-106.747	72.092	134.634	-131.725	-84.89	110.142
540	5.4	-74.231	59.928	125.904	132.813	20.386	254.564	130.553	52.037	260.263	-46.816	-153.158	-8.669	-46.816	31.938	-8.669	0	0	0	-153.003	7.284	46.06	-106.964	71.892	135.116	-132.288	-84.794	109.132
541	5.41	-73.745	59.927	126.665	132.182	16.21	255.767	130.3	47.818	261.834	-46.816	-153.158	-8.669	-46.816	31.938	-8.669	0	0	0	-153.117	7.996	45.811	-107.177	71.611	135.631	-132.794	-84.751	108.025
542	5.42	-73.466	59.759	127.122	131.566	12.006	256.218	130.078	43.57	262.619	-46.816	-153.158	-8.669	-46.816	31.938	-8.669	0	0	0	-153.079	8.506	45.781	-107.214	71.026	136.404	-133.19	-84.959	107.055
543	5.43	-73.458	58.991	127.579	130.708	7.237	256.506	129.639	38.756	263.201	-46.816	-153.158	-8.669	-46.816	31.938	-8.669	0	0	0	-152.998	8.824	45.896	-107.16	70.204	137.308	-133.612	-85.362	106.218
544	5.44	-73.39	57.756	128.188	129.747	2.067	257.101	129.112	33.543	264.049	-46.816	-153.158	-8.669	-46.816	31.938	-8.669	0	0	0	-152.899	9.143	45.848	-107.057	69.421	137.989	-134.036	-85.72	105.269
545	5.45	-72.985	56.708	128.957	128.896	-2.735	258.167	128.683	28.699	265.328	-46.816	-153.158	-8.669	-46.816	31.938	-8.669	0	0	0	-152.724	9.57	45.59	-106.89	68.81	138.405	-134.366	-85.915	104.166
546	5.46	-72.533	56.223	129.846	127.924	-6.78	259.585	128.109	24.609	266.941	-46.816	-153.158	-8.669	-46.816	31.938	-8.669	0	0	0	-152.524	10.055	45.266	-106.736	68.303	138.73	-134.64	-86.015	103.028
547	5.47	-72.411	55.959	130.707	126.587	-10.551	260.94	127.158	20.785	268.499	-46.816	-153.158	-8.669	-46.816	31.938	-8.669	0	0	0	-152.367	10.597	44.822	-106.642	67.885	138.908	-134.882	-86.032	101.767
548	5.48	-72.548	55.467	131.414	125.065	-14.637	261.869	126.023	16.633	269.662	-46.816	-153.158	-8.669	-46.816	31.938	-8.669	0	0	0	-152.264	11.376	44.146	-106.583	67.719	138.822	-135.067	-85.799	100.244
549	5.49	-72.738	54.627	132.063	123.54	-19.201	262.48	124.888	11.985	270.544	-46.816	-153.158	-8.669	-46.816	31.938	-8.669	0	0	0	-152.24	12.421	43.503	-106.604	67.783	138.777	-135.32	-85.31	98.712
550	5.5	-72.819	53.58	132.669	122.091	-24.023	262.947	123.822	7.066	271.307	-46.816	-153.158	-8.669	-46.816	31.938	-8.669	0	0	0	-152.253	13.26	43.372	-106.703	67.546	139.305	-135.792	-85.057	97.672
551	5.51	-72.628	52.681	132.945	120.883	-28.556	263.092	122.972	2.429	271.75	-46.816	-153.158	-8.669	-46.816	31.938	-8.669	0	0	0	-152.157	13.466	43.771	-106.735	66.571	140.423	-136.412	-85.465	97.161
552	5.52	-72.314	52.071	132.785	119.776	-32.556	262.877	122.184	-1.677	271.828	-46.816	-153.158	-8.669	-46.816	31.938	-8.669	0	0	0	-152	13.321	44.126	-106.723	65.194	141.512	-137.09	-86.226	96.6
553	5.53	-72.278	51.435	132.598	118.292	-36.501	262.732	120.993	-5.736	271.988	-46.816	-153.158	-8.669	-46.816	31.938	-8.669	0	0	0	-152.049	13.385	43.921	-106.918	64.049	142.009	-137.862	-86.757	95.457
554	5.54	-72.637	50.557	132.812	116.293	-40.807	262.975	119.279	-10.172	272.568	-46.816	-153.158	-8.669	-46.816	31.938	-8.669	0	0	0	-152.315	13.808	43.13	-107.33	63.328	141.866	-138.608	-86.897	93.688
555	5.55	-73.09	49.563	133.344	114.163	-45.385	263.365	117.444	-14.896	273.32	-46.816	-153.158	-8.669	-46.816	31.938	-8.669	0	0	0	-152.435	14.47	42.035	-107.611	62.888	141.39	-138.992	-86.779	91.568
556	5.56	-73.214	48.593	133.829	112.368	-50.048	263.496	115.966	-19.717	273.816	-46.816	-153.158	-8.669	-46.816	31.938	-8.669	0	0	0	-152.126	15.291	41.036	-107.53	62.595	141.028	-138.897	-86.499	89.507
557	5.57	-72.908	47.734	134.253	110.929	-54.634	263.518	114.857	-24.467	274.192	-46.816	-153.158	-8.669	-46.816	31.938	-8.669	0	0	0	-151.532	16.154	40.542	-107.275	62.291	141.227	-138.659	-86.181	87.95
558	5.58	-72.496	46.931	135.01	109.378	-59.124	264.077	113.634	-29.124	275.091	-46.816	-153.158	-8.669	-46.816	31.938	-8.669	0	0	0	-151.049	16.834	40.699	-107.211	61.755	142.115	-138.76	-86.04	87.083
559	5.59	-72.287	45.925	136.216	107.368	-63.784	265.337	111.949	-33.952	276.673	-46.816	-153.158	-8.669	-46.816	31.938	-8.669	0	0	0	-150.892	17.207	41.16	-107.447	60.898	143.28	-139.344	-86.186	86.57
560	5.6	-72.367	44.538	137.458	104.949	-68.83	266.652	109.871	-39.169	278.291	-46.816	-153.158	-8.669	-46.816	31.938	-8.669	0	0	0	-151	17.43	41.302	-107.835	59.901	144.053	-140.189	-86.459	85.752
561	5.61	-72.786	42.952	138.253	102.294	-74.028	267.276	107.58	-44.542	279.194	-46.816	-153.158	-8.669	-46.816	31.938	-8.669	0	0	0	-151.294	17.766	40.782	-108.31	59.018	144.105	-141.081	-86.61	84.223
